<?xml version="1.0" encoding="utf-8"?>
<!-- Generator: Adobe Illustrator 15.0.0, SVG Export Plug-In . SVG Version: 6.00 Build 0)  -->
<!DOCTYPE svg PUBLIC "-//W3C//DTD SVG 1.1//EN" "http://www.w3.org/Graphics/SVG/1.1/DTD/svg11.dtd">
<svg version="1.1" id="Layer_1" xmlns="http://www.w3.org/2000/svg" xmlns:xlink="http://www.w3.org/1999/xlink" x="0px" y="0px"
	 width="14.997px" height="14.997px" viewBox="0 0 14.997 14.997" enable-background="new 0 0 14.997 14.997" xml:space="preserve">
<g>
	<path d="M27.187,56.405c0.372,0.068,0.642,0.263,0.812,0.584c0.169,0.322,0.22,0.652,0.152,0.99l-5.533,22.285
		c-0.17,0.677-0.592,1.015-1.269,1.015h-1.726c-0.677,0-1.1-0.338-1.269-1.015l-4.111-17.107L9.877,80.263
		c-0.203,0.677-0.643,1.015-1.32,1.015H6.933c-0.71,0-1.167-0.338-1.371-1.015L0.029,57.979c-0.068-0.338-0.018-0.668,0.152-0.99
		c0.169-0.321,0.422-0.516,0.761-0.584c0.372-0.067,0.719-0.008,1.041,0.178c0.321,0.187,0.516,0.432,0.584,0.736l5.178,20.812
		l5.229-20.812c0.236-0.643,0.676-0.965,1.32-0.965c0.271,0,0.524,0.094,0.761,0.279c0.236,0.187,0.389,0.415,0.457,0.686
		l4.975,20.761l5.127-20.761c0.102-0.305,0.296-0.55,0.583-0.736C26.484,56.397,26.814,56.337,27.187,56.405z"/>
	<path d="M40.639,56.354c2.707,0,5.008,0.948,6.904,2.843c0.914,0.914,1.616,1.963,2.106,3.147c0.49,1.185,0.736,2.42,0.736,3.706
		v2.487c0,0.373-0.126,0.685-0.38,0.939s-0.567,0.381-0.939,0.381H33.431v1.675c0,1.015,0.186,1.954,0.558,2.817
		c0.372,0.863,0.889,1.625,1.548,2.285c0.66,0.66,1.421,1.176,2.284,1.548c0.863,0.373,1.802,0.559,2.817,0.559h5.533
		c0.372,0,0.676,0.119,0.914,0.355c0.236,0.237,0.355,0.542,0.355,0.914c0,0.373-0.119,0.677-0.355,0.914
		c-0.237,0.237-0.542,0.355-0.914,0.355h-5.533c-1.354,0-2.623-0.254-3.807-0.761c-1.185-0.508-2.226-1.201-3.122-2.082
		c-0.897-0.879-1.599-1.912-2.106-3.096c-0.507-1.185-0.761-2.454-0.761-3.807V66.05c0-1.286,0.236-2.521,0.71-3.706
		c0.474-1.184,1.201-2.233,2.183-3.147c0.914-0.947,1.962-1.658,3.147-2.132C38.066,56.591,39.319,56.354,40.639,56.354z
		 M47.745,66.05c0-0.914-0.177-1.81-0.533-2.69c-0.355-0.879-0.872-1.658-1.548-2.335c-1.354-1.421-3.029-2.132-5.025-2.132
		c-0.982,0-1.903,0.187-2.767,0.559c-0.863,0.373-1.633,0.897-2.31,1.574c-0.677,0.677-1.202,1.456-1.574,2.335
		c-0.373,0.88-0.558,1.777-0.558,2.69v1.218h14.314V66.05z"/>
	<path d="M72.313,80.009c0,0.136-0.018,0.279-0.051,0.432c-0.034,0.152-0.136,0.313-0.305,0.482
		c-0.237,0.237-0.542,0.355-0.914,0.355l-7.106-0.051c-1.388,0-2.69-0.262-3.909-0.787c-1.218-0.524-2.276-1.244-3.173-2.158
		c-0.897-0.914-1.607-1.979-2.132-3.198c-0.525-1.218-0.787-2.521-0.787-3.909v-4.873c0-1.387,0.262-2.69,0.787-3.909
		c0.524-1.218,1.235-2.284,2.132-3.198c0.896-0.914,1.955-1.632,3.173-2.157c1.218-0.524,2.521-0.787,3.909-0.787h5.837V44.019
		c0-0.372,0.118-0.676,0.355-0.914c0.236-0.236,0.541-0.355,0.914-0.355c0.372,0,0.677,0.119,0.914,0.355
		c0.236,0.237,0.355,0.542,0.355,0.914V80.009z M56.526,71.177c0,1.015,0.194,1.979,0.584,2.894
		c0.389,0.914,0.921,1.709,1.599,2.386c0.676,0.677,1.463,1.21,2.36,1.599c0.896,0.389,1.853,0.583,2.868,0.583h5.837v-8.426V58.842
		h-5.837c-1.016,0-1.972,0.195-2.868,0.583c-0.897,0.39-1.684,0.931-2.36,1.625c-0.678,0.694-1.21,1.489-1.599,2.386
		c-0.39,0.897-0.584,1.853-0.584,2.868V71.177z"/>
	<path d="M78.811,42.852c0.305,0,0.592,0.119,0.863,0.355c0.271,0.237,0.406,0.542,0.406,0.914v35.787
		c0,0.406-0.136,0.728-0.406,0.964c-0.271,0.237-0.558,0.355-0.863,0.355c-0.406,0-0.736-0.118-0.99-0.355
		c-0.254-0.236-0.381-0.558-0.381-0.964V44.121c0-0.372,0.127-0.677,0.381-0.914C78.074,42.971,78.404,42.852,78.811,42.852z"/>
	<path d="M86.679,53.207c-0.373,0-0.678-0.127-0.914-0.381c-0.237-0.254-0.355-0.583-0.355-0.99c0-0.372,0.118-0.677,0.355-0.914
		c0.236-0.236,0.541-0.355,0.914-0.355c0.372,0,0.685,0.119,0.939,0.355c0.254,0.237,0.381,0.542,0.381,0.914
		c0,0.406-0.127,0.736-0.381,0.99S87.051,53.207,86.679,53.207z M87.999,79.908c0,0.406-0.127,0.728-0.381,0.964
		c-0.254,0.237-0.567,0.355-0.939,0.355c-0.847,0-1.269-0.439-1.269-1.32V57.623c0-0.372,0.118-0.676,0.355-0.914
		c0.236-0.236,0.541-0.355,0.914-0.355c0.372,0,0.685,0.119,0.939,0.355c0.254,0.237,0.381,0.542,0.381,0.914V79.908z"/>
	<path d="M112.211,56.405c0.338,0.17,0.584,0.406,0.736,0.711s0.178,0.643,0.076,1.015l-8.122,22.285
		c-0.203,0.576-0.626,0.863-1.269,0.863h-1.625c-0.643,0-1.066-0.287-1.269-0.863l-8.071-22.285
		c-0.101-0.372-0.076-0.71,0.076-1.015c0.152-0.305,0.414-0.541,0.787-0.711c0.338-0.067,0.668-0.033,0.99,0.102
		c0.321,0.136,0.516,0.39,0.584,0.762l7.665,21.32l7.767-21.32c0.135-0.372,0.355-0.626,0.66-0.762
		C111.501,56.372,111.839,56.337,112.211,56.405z"/>
	<path d="M124.902,56.354c2.707,0,5.008,0.948,6.904,2.843c0.914,0.914,1.616,1.963,2.106,3.147c0.49,1.185,0.736,2.42,0.736,3.706
		v2.487c0,0.373-0.126,0.685-0.38,0.939s-0.567,0.381-0.939,0.381h-15.634v1.675c0,1.015,0.186,1.954,0.558,2.817
		c0.372,0.863,0.889,1.625,1.548,2.285c0.66,0.66,1.421,1.176,2.284,1.548c0.863,0.373,1.802,0.559,2.817,0.559h5.533
		c0.372,0,0.676,0.119,0.914,0.355c0.236,0.237,0.355,0.542,0.355,0.914c0,0.373-0.119,0.677-0.355,0.914
		c-0.237,0.237-0.542,0.355-0.914,0.355h-5.533c-1.354,0-2.623-0.254-3.807-0.761c-1.185-0.508-2.226-1.201-3.122-2.082
		c-0.897-0.879-1.599-1.912-2.106-3.096c-0.507-1.185-0.761-2.454-0.761-3.807V66.05c0-1.286,0.236-2.521,0.71-3.706
		c0.474-1.184,1.201-2.233,2.183-3.147c0.914-0.947,1.962-1.658,3.147-2.132C122.33,56.591,123.582,56.354,124.902,56.354z
		 M132.008,66.05c0-0.914-0.177-1.81-0.533-2.69c-0.355-0.879-0.872-1.658-1.548-2.335c-1.354-1.421-3.029-2.132-5.025-2.132
		c-0.982,0-1.903,0.187-2.767,0.559c-0.863,0.373-1.633,0.897-2.31,1.574c-0.677,0.677-1.202,1.456-1.574,2.335
		c-0.373,0.88-0.558,1.777-0.558,2.69v1.218h14.314V66.05z"/>
</g>
<circle fill="#BA171E" cx="7.498" cy="7.498" r="7.498"/>
</svg>
